<?xml version="1.0" encoding="UTF-8" standalone="yes"?>
<svg width="512" height="512" viewBox="0 0 512 512" version="1.2" baseProfile="tiny-ps" xmlns="http://www.w3.org/2000/svg">
  <title>bimi-svg-tiny-12-ps</title>
  <g>
    <path d="M 0.00 0.00 L 512.00 0.00 L 512.00 512.00 L 0.00 512.00 ZM 246.00 483.27 C247.38,483.52 252.65,483.79 257.71,483.86 C269.14,484.03 272.42,482.89 292.00,471.90 C299.98,467.43 310.77,461.42 316.00,458.54 C321.23,455.67 328.42,451.62 332.00,449.55 C338.41,445.84 384.52,419.83 403.00,409.50 C408.23,406.58 418.35,400.92 425.50,396.92 C432.65,392.92 440.98,388.30 444.00,386.66 C456.33,379.95 464.48,370.63 468.05,359.15 C470.09,352.61 470.12,350.92 470.03,255.08 L 469.95 157.65 L 467.54 150.72 C462.30,135.66 456.03,130.13 424.50,112.78 C414.76,107.43 369.01,81.52 356.00,73.99 C352.42,71.92 336.23,62.71 320.00,53.51 C303.77,44.32 287.92,35.24 284.78,33.35 C273.43,26.53 262.26,24.12 250.50,25.95 C242.68,27.16 237.51,29.56 216.00,41.96 C208.02,46.56 197.45,52.42 192.50,54.99 C187.55,57.55 179.90,61.70 175.50,64.20 C161.44,72.19 129.76,90.12 121.69,94.66 C117.39,97.08 112.11,100.17 109.96,101.53 C107.80,102.89 105.85,104.00 105.61,104.00 C104.67,104.00 64.27,127.33 61.28,129.61 C53.94,135.19 46.98,148.01 45.62,158.50 C45.33,160.70 44.96,205.96 44.80,259.07 L 44.50 355.64 L 48.75 364.22 C55.13,377.10 57.18,378.63 102.00,403.77 C103.93,404.85 113.38,410.22 123.00,415.71 C132.62,421.20 151.52,431.90 165.00,439.50 C193.84,455.76 217.51,469.18 224.50,473.22 C231.82,477.46 243.12,482.74 246.00,483.27 ZM 271.00 453.71 C266.89,455.61 252.02,456.40 247.38,454.97 C245.67,454.44 240.72,452.05 236.38,449.66 C232.05,447.26 225.35,443.60 221.50,441.52 C217.65,439.45 212.48,436.53 210.00,435.04 C207.52,433.55 201.23,429.95 196.00,427.04 C190.77,424.13 183.57,420.06 180.00,418.00 C176.43,415.94 165.40,409.79 155.50,404.32 C75.67,360.24 75.61,360.20 70.62,349.10 L 67.94 343.11 L 68.50 163.50 L 70.89 158.64 C75.77,148.73 76.22,148.44 158.50,102.24 C167.85,96.99 182.02,89.00 190.00,84.48 C225.73,64.22 244.85,54.05 249.23,52.95 C251.83,52.30 257.05,51.95 260.81,52.16 C268.62,52.60 270.95,53.64 294.50,67.17 C319.46,81.52 365.75,107.91 378.50,115.06 C385.10,118.76 394.09,123.87 398.48,126.40 C402.86,128.93 406.77,131.00 407.17,131.00 C408.54,131.00 434.52,147.24 437.34,149.86 C438.90,151.31 441.38,154.52 442.84,157.00 L 445.50 161.50 L 445.77 252.16 L 446.04 342.82 L 443.87 348.63 C440.44,357.79 434.52,362.76 411.96,375.44 C401.26,381.45 388.00,388.92 382.50,392.03 C377.00,395.14 363.05,402.98 351.50,409.46 C339.95,415.94 323.61,425.23 315.18,430.12 C306.76,435.00 299.51,439.00 299.08,439.00 C298.23,439.00 287.86,444.41 279.67,449.12 C276.83,450.76 272.92,452.82 271.00,453.71 ZM 187.80 405.74 C196.99,410.82 205.24,414.98 206.14,414.99 C207.25,415.00 210.41,409.82 216.05,398.75 C223.42,384.27 244.02,344.51 253.21,327.00 C255.09,323.42 260.40,313.19 265.01,304.25 L 273.40 288.00 L 340.50 288.00 L 350.75 268.54 C356.39,257.83 361.00,248.67 361.00,248.19 C361.00,246.91 343.01,246.00 317.84,246.00 C304.05,246.00 296.00,245.63 296.00,245.01 C296.00,244.46 300.38,235.24 305.74,224.51 L 315.48 205.00 L 387.86 205.00 L 391.84 197.75 C401.01,181.04 410.95,160.55 410.24,159.84 C409.82,159.42 381.81,158.95 347.99,158.79 L 286.50 158.50 L 277.50 176.01 C265.17,200.00 246.97,235.13 239.69,249.00 C236.37,255.32 226.54,274.67 217.85,292.00 C209.16,309.33 200.31,326.65 198.19,330.50 C196.06,334.35 190.13,345.60 185.01,355.50 C179.89,365.40 175.37,373.95 174.96,374.50 C174.56,375.05 172.30,379.30 169.94,383.95 L 165.66 392.40 L 168.38 394.45 C169.88,395.58 178.62,400.66 187.80,405.74 ZM 161.02 352.87 C170.06,355.30 170.49,355.33 171.74,353.75 C174.02,350.83 193.43,312.09 192.88,311.54 C192.54,311.21 189.85,310.70 186.89,310.41 C163.35,308.11 146.55,293.77 140.43,270.77 C138.59,263.88 138.62,247.84 140.47,241.73 C146.60,221.53 160.97,207.42 178.89,204.02 C181.87,203.46 198.96,203.00 217.13,203.00 L 249.98 203.00 L 255.11 192.75 C257.93,187.11 263.17,177.17 266.74,170.67 C270.96,162.98 272.89,158.49 272.26,157.86 C271.64,157.24 252.40,157.01 219.89,157.22 L 168.50 157.56 L 157.53 161.81 C144.11,167.01 137.50,170.64 128.88,177.56 C118.20,186.14 110.43,196.23 102.75,211.50 C100.81,215.35 98.67,220.52 97.99,223.00 C97.31,225.48 96.11,228.97 95.32,230.76 C93.15,235.72 91.71,251.27 92.34,263.00 C93.32,281.30 99.26,298.95 109.46,313.88 C112.23,317.94 115.48,322.72 116.68,324.50 C117.88,326.28 122.61,330.97 127.18,334.92 C136.57,343.04 149.07,349.66 161.02,352.87 Z" fill="rgb(13,13,47)"/>
    <path d="M 301.29 466.71 C307.02,463.30 306.02,463.39 296.49,468.42 C289.56,472.08 287.28,472.82 284.24,472.43 C282.18,472.17 278.82,471.85 276.76,471.73 C274.70,471.60 273.01,471.16 273.01,470.75 C272.97,467.19 273.09,467.05 276.08,467.40 C279.48,467.79 283.30,464.72 282.75,462.03 C282.44,460.49 281.64,460.45 274.88,461.58 C271.61,462.13 271.22,461.95 270.79,459.69 C270.53,458.31 270.72,456.47 271.21,455.60 C272.21,453.80 276.53,453.43 277.53,455.05 C278.58,456.74 280.29,455.60 280.69,452.95 C280.89,451.60 281.51,450.34 282.07,450.15 C282.62,449.96 284.29,448.81 285.79,447.59 C287.28,446.37 290.19,444.35 292.25,443.10 C294.31,441.86 296.00,440.64 296.00,440.41 C296.00,440.38 295.98,440.36 295.93,440.36 C297.65,439.51 298.82,439.00 299.08,439.00 C299.51,439.00 306.76,435.00 315.18,430.12 C323.61,425.23 339.95,415.94 351.50,409.46 C363.05,402.98 377.00,395.14 382.50,392.03 C388.00,388.92 401.26,381.45 411.96,375.44 C434.52,362.76 440.44,357.79 443.87,348.63 L 446.04 342.82 L 445.77 252.16 L 445.50 161.50 L 442.84 157.00 C441.38,154.52 438.90,151.31 437.34,149.86 C434.52,147.24 408.54,131.00 407.17,131.00 C406.77,131.00 402.86,128.93 398.48,126.40 C394.09,123.87 385.10,118.76 378.50,115.06 C365.75,107.91 319.46,81.52 294.50,67.17 C270.95,53.64 268.62,52.60 260.81,52.16 C257.05,51.95 251.83,52.30 249.23,52.95 C244.85,54.05 225.73,64.22 190.00,84.48 L 189.56 84.72 C193.82,82.24 196.71,80.38 196.54,80.20 C196.30,79.96 193.93,81.10 191.29,82.73 C187.40,85.12 186.04,85.50 184.24,84.69 C181.63,83.53 181.25,79.87 183.52,77.98 C184.85,76.88 184.69,76.39 182.19,74.11 C175.46,67.96 176.32,64.49 185.70,59.89 C188.01,58.75 190.48,57.11 191.20,56.22 C191.50,55.85 191.70,55.55 191.79,55.36 C192.03,55.23 192.27,55.11 192.50,54.99 C197.45,52.42 208.02,46.56 216.00,41.96 C237.51,29.56 242.68,27.16 250.50,25.95 C262.26,24.12 273.43,26.53 284.78,33.35 C287.92,35.24 303.77,44.32 320.00,53.51 C336.23,62.71 352.42,71.92 356.00,73.99 C369.01,81.52 414.76,107.43 424.50,112.78 C456.03,130.13 462.30,135.66 467.54,150.72 L 469.95 157.65 L 470.03 255.08 C470.12,350.92 470.09,352.61 468.05,359.15 C464.48,370.63 456.33,379.95 444.00,386.66 C440.98,388.30 432.65,392.92 425.50,396.92 C418.35,400.92 408.23,406.58 403.00,409.50 C384.52,419.83 338.41,445.84 332.00,449.55 C328.42,451.62 321.23,455.67 316.00,458.54 C312.65,460.39 307.01,463.52 301.29,466.71 ZM 218.18 394.59 C223.09,384.98 230.74,370.15 236.54,359.00 C266.88,300.62 273.38,287.96 271.76,290.42 C266.72,298.09 261.10,301.81 252.16,303.40 C248.27,304.08 235.45,310.11 234.00,311.94 C233.07,313.11 223.52,318.83 219.50,320.62 C217.30,321.60 213.64,324.16 211.36,326.30 C207.73,329.72 206.97,330.05 205.06,329.03 C203.86,328.39 202.57,327.01 202.18,325.95 C202.02,325.53 201.91,325.17 201.71,325.11 C201.43,325.02 200.96,325.50 199.94,327.20 C203.48,320.43 210.72,306.21 217.85,292.00 C226.54,274.67 236.37,255.32 239.69,249.00 C246.97,235.13 265.17,200.00 277.50,176.01 L 286.50 158.50 L 347.99 158.79 C381.81,158.95 409.82,159.42 410.24,159.84 C410.95,160.55 401.01,181.04 391.84,197.75 L 387.86 205.00 L 315.48 205.00 L 305.74 224.51 C300.38,235.24 296.00,244.46 296.00,245.01 C296.00,245.63 304.05,246.00 317.84,246.00 C343.01,246.00 361.00,246.91 361.00,248.19 C361.00,248.67 356.39,257.83 350.75,268.54 L 340.50 288.00 L 273.40 288.00 L 265.01 304.25 C260.40,313.19 255.09,323.42 253.21,327.00 C244.79,343.04 226.80,377.74 218.18,394.59 ZM 455.33 366.83 C453.76,372.85 462.14,365.41 466.19,357.19 L 468.50 352.50 L 468.79 258.00 C468.96,202.81 468.69,161.00 468.14,157.50 C466.84,149.15 462.66,140.89 456.61,134.73 C451.86,129.91 448.21,127.51 428.50,116.30 C419.44,111.14 408.18,104.70 400.00,100.00 C388.47,93.38 363.71,79.72 356.00,75.73 C351.88,73.60 347.11,71.00 345.42,69.95 C343.72,68.90 339.46,67.31 335.95,66.41 L 329.56 64.77 L 326.82 68.04 C325.32,69.84 323.80,72.62 323.45,74.21 C322.56,78.28 326.18,83.25 331.68,85.52 C334.06,86.50 336.00,87.64 336.00,88.06 C336.00,88.48 338.02,89.80 340.49,91.00 C342.97,92.19 345.25,93.60 345.58,94.12 C346.28,95.27 351.87,98.60 375.00,111.70 C386.47,118.20 400.01,126.17 409.73,132.16 C413.15,134.27 416.24,136.00 416.60,136.00 C418.37,136.00 435.35,146.64 438.58,149.77 C440.61,151.75 443.29,155.65 444.53,158.43 L 446.78 163.50 L 447.38 254.31 C447.86,326.92 447.72,345.76 446.69,348.31 C445.99,350.07 445.49,352.06 445.58,352.75 C445.67,353.44 445.81,354.62 445.88,355.38 C445.94,356.14 447.36,357.32 449.03,358.01 C452.94,359.63 456.07,364.01 455.33,366.83 ZM 244.81 249.48 C245.87,250.53 247.05,249.93 249.66,247.00 C251.63,244.79 253.22,244.00 255.70,244.00 C257.55,244.00 261.30,242.87 264.03,241.49 C267.35,239.80 271.73,238.70 277.29,238.13 C281.85,237.67 286.55,236.77 287.73,236.15 C288.91,235.52 290.69,234.99 291.68,234.97 C295.71,234.90 302.22,227.49 308.42,215.91 L 314.53 204.50 L 350.76 204.24 L 386.99 203.98 L 389.30 200.24 C390.57,198.18 394.90,189.98 398.93,182.00 C402.95,174.02 407.14,166.01 408.24,164.20 C409.33,162.38 410.02,160.68 409.76,160.42 C409.50,160.17 381.89,159.69 348.39,159.36 L 287.50 158.76 L 285.16 163.13 C283.88,165.53 274.61,183.93 264.56,204.00 C248.03,237.03 243.29,247.95 244.81,249.48 ZM 97.81 281.25 C98.63,282.21 99.99,283.00 100.81,283.00 C102.58,283.00 111.98,273.08 111.99,271.20 C112.00,270.49 113.19,268.72 114.64,267.27 C116.09,265.82 118.78,262.07 120.61,258.95 C124.07,253.05 127.56,250.00 130.85,250.00 C132.06,250.00 133.38,248.72 134.41,246.54 C135.32,244.64 136.46,242.83 136.96,242.52 C137.46,242.21 138.80,239.47 139.94,236.42 C144.88,223.23 154.00,213.19 166.92,206.72 L 175.34 202.50 L 210.92 202.00 C244.94,201.52 246.51,201.42 246.83,199.59 C247.01,198.54 248.56,195.84 250.28,193.59 C258.65,182.62 260.31,180.13 265.12,171.35 C270.54,161.45 271.23,159.90 270.52,159.19 C270.14,158.81 247.26,158.50 219.67,158.50 L 217.77 158.50 C177.84,158.50 168.00,158.50 159.05,161.32 C158.32,161.55 157.58,161.80 156.84,162.08 C157.07,161.99 157.30,161.90 157.53,161.81 L 168.50 157.56 L 219.89 157.22 C252.40,157.01 271.64,157.24 272.26,157.86 C272.89,158.49 270.96,162.98 266.74,170.67 C263.17,177.17 257.93,187.11 255.11,192.75 L 249.98 203.00 L 217.13 203.00 C198.96,203.00 181.87,203.46 178.89,204.02 C160.97,207.42 146.60,221.53 140.47,241.73 C138.62,247.84 138.59,263.88 140.43,270.77 C146.55,293.77 163.35,308.11 186.89,310.41 C173.99,309.15 163.44,304.59 155.06,296.65 C150.41,292.24 150.11,292.08 152.97,295.50 C154.80,297.70 156.91,299.86 157.65,300.30 C158.39,300.74 159.00,301.81 159.00,302.69 C159.00,304.87 147.44,316.54 142.26,319.58 C139.93,320.95 138.13,322.40 138.26,322.81 C138.66,324.03 130.59,330.81 127.95,331.48 C126.30,331.89 124.81,331.50 123.45,330.30 C119.36,326.68 117.70,325.30 117.19,325.18 C116.98,324.92 116.81,324.69 116.68,324.50 C115.48,322.72 112.23,317.94 109.46,313.88 C99.26,298.95 93.32,281.30 92.34,263.00 C91.71,251.27 93.15,235.72 95.32,230.76 C96.11,228.97 97.31,225.48 97.99,223.00 C98.51,221.10 99.89,217.61 101.38,214.35 C95.20,228.31 92.27,248.80 93.99,266.84 C94.99,277.38 95.21,278.23 97.81,281.25 ZM 126.23 179.77 C117.57,187.49 110.20,197.27 103.82,209.41 C110.50,196.55 117.36,187.47 126.23,179.77 ZM 268.36 454.52 C265.93,455.24 263.54,455.55 260.29,455.77 C256.99,455.99 254.25,455.98 251.63,455.60 C256.70,455.93 264.00,455.47 268.36,454.52 ZM 89.16 141.85 C74.91,150.66 73.57,153.20 70.89,158.64 C73.67,153.01 74.04,151.09 89.16,141.85 ZM 181.47 60.88 C180.51,61.42 179.51,61.99 178.50,62.56 C171.90,66.28 158.18,74.04 148.00,79.80 C137.82,85.56 125.98,92.25 121.69,94.66 C129.76,90.12 161.44,72.19 175.50,64.20 C177.14,63.26 179.23,62.10 181.47,60.88 ZM 123.18 331.32 C124.14,332.19 125.18,333.10 126.25,334.04 C129.79,337.14 133.49,339.93 137.34,342.39 C133.70,340.11 130.27,337.60 127.18,334.92 C125.83,333.76 124.47,332.52 123.18,331.32 ZM 180.59 89.80 C173.28,93.92 164.80,98.71 158.50,102.24 C155.26,104.06 152.15,105.80 149.16,107.48 C152.00,105.88 154.94,104.22 158.00,102.50 C164.52,98.82 173.76,93.63 180.59,89.80 ZM 286.21 445.46 C284.44,446.45 282.38,447.62 280.00,448.97 C277.67,450.29 275.74,451.35 274.04,452.20 C275.86,451.25 277.95,450.11 279.67,449.12 C281.77,447.91 284.02,446.65 286.21,445.46 ZM 257.71 483.86 C252.65,483.79 247.38,483.52 246.00,483.27 C247.38,483.52 252.78,483.78 258.00,483.84 C261.12,483.88 263.60,483.83 265.98,483.50 C263.50,483.85 260.93,483.91 257.71,483.86 ZM 188.05 349.65 C187.11,351.47 186.10,353.41 185.02,355.50 C180.13,364.94 175.79,373.15 175.05,374.37 C175.79,373.15 180.13,364.94 185.01,355.50 C186.01,353.58 187.03,351.61 188.05,349.65 ZM 152.46 163.83 C151.38,164.29 150.24,164.79 149.00,165.33 C148.64,165.48 148.29,165.63 147.93,165.79 C149.35,165.15 150.85,164.50 152.46,163.83 ZM 236.38 449.66 C237.32,450.17 238.28,450.69 239.24,451.19 C238.34,450.73 237.41,450.22 236.43,449.68 C232.07,447.27 225.35,443.60 221.50,441.52 C225.35,443.60 232.05,447.26 236.38,449.66 ZM 141.81 168.82 C141.00,169.26 140.20,169.71 139.41,170.17 C140.19,169.71 140.99,169.26 141.81,168.82 Z" fill="rgb(76,145,235)"/>
    <path d="M 97.81 281.25 C95.21,278.23 94.99,277.38 93.99,266.84 C92.27,248.80 95.20,228.31 101.38,214.35 C101.84,213.36 102.30,212.40 102.75,211.50 C103.10,210.79 103.46,210.09 103.82,209.41 L 103.82 209.41 C110.20,197.27 117.57,187.49 126.23,179.77 C127.10,179.02 127.98,178.29 128.88,177.56 C132.53,174.63 135.81,172.29 139.41,170.17 C140.20,169.71 141.00,169.26 141.81,168.82 C143.71,167.79 145.72,166.80 147.93,165.79 C148.29,165.63 148.64,165.48 149.00,165.33 C150.24,164.79 151.38,164.29 152.46,163.84 L 152.46 163.83 C153.84,163.26 155.29,162.68 156.84,162.08 C157.58,161.80 158.32,161.55 159.05,161.32 C168.00,158.50 177.84,158.50 217.77,158.50 L 219.67 158.50 C247.26,158.50 270.14,158.81 270.52,159.19 C271.23,159.90 270.54,161.45 265.12,171.35 C260.31,180.13 258.65,182.62 250.28,193.59 C248.56,195.84 247.01,198.54 246.83,199.59 C246.51,201.42 244.94,201.52 210.92,202.00 L 175.34 202.50 L 166.92 206.72 C154.00,213.19 144.88,223.23 139.94,236.42 C138.80,239.47 137.46,242.21 136.96,242.52 C136.46,242.83 135.32,244.64 134.41,246.54 C133.38,248.72 132.06,250.00 130.85,250.00 C127.56,250.00 124.07,253.05 120.61,258.95 C118.78,262.07 116.09,265.82 114.64,267.27 C113.19,268.72 112.00,270.49 111.99,271.20 C111.98,273.08 102.58,283.00 100.81,283.00 C99.99,283.00 98.63,282.21 97.81,281.25 ZM 455.33 366.83 C456.07,364.01 452.94,359.63 449.03,358.01 C447.36,357.32 445.94,356.14 445.88,355.38 C445.81,354.62 445.67,353.44 445.58,352.75 C445.49,352.06 445.99,350.07 446.69,348.31 C447.72,345.76 447.86,326.92 447.38,254.31 L 446.78 163.50 L 444.53 158.43 C443.29,155.65 440.61,151.75 438.58,149.77 C435.35,146.64 418.37,136.00 416.60,136.00 C416.24,136.00 413.15,134.27 409.73,132.16 C400.01,126.17 386.47,118.20 375.00,111.70 C351.87,98.60 346.28,95.27 345.58,94.12 C345.25,93.60 342.97,92.19 340.49,91.00 C338.02,89.80 336.00,88.48 336.00,88.06 C336.00,87.64 334.06,86.50 331.68,85.52 C326.18,83.25 322.56,78.28 323.45,74.21 C323.80,72.62 325.32,69.84 326.82,68.04 L 329.56 64.77 L 335.95 66.41 C339.46,67.31 343.72,68.90 345.42,69.95 C347.11,71.00 351.88,73.60 356.00,75.73 C363.71,79.72 388.47,93.38 400.00,100.00 C408.18,104.70 419.44,111.14 428.50,116.30 C448.21,127.51 451.86,129.91 456.61,134.73 C462.66,140.89 466.84,149.15 468.14,157.50 C468.69,161.00 468.96,202.81 468.79,258.00 L 468.50 352.50 L 466.19 357.19 C462.14,365.41 453.76,372.85 455.33,366.83 ZM 244.81 249.48 C243.29,247.95 248.03,237.03 264.56,204.00 C274.61,183.93 283.88,165.53 285.16,163.13 L 287.50 158.76 L 348.39 159.36 C381.89,159.69 409.50,160.17 409.76,160.42 C410.02,160.68 409.33,162.38 408.24,164.20 C407.14,166.01 402.95,174.02 398.93,182.00 C394.90,189.98 390.57,198.18 389.30,200.24 L 386.99 203.98 L 350.76 204.24 L 314.53 204.50 L 308.42 215.91 C302.22,227.49 295.71,234.90 291.68,234.97 C290.69,234.99 288.91,235.52 287.73,236.15 C286.55,236.77 281.85,237.67 277.29,238.13 C271.73,238.70 267.35,239.80 264.03,241.49 C261.30,242.87 257.55,244.00 255.70,244.00 C253.22,244.00 251.63,244.79 249.66,247.00 C247.05,249.93 245.87,250.53 244.81,249.48 Z" fill="rgb(78,218,249)"/>
    <path d="M 246.00 483.27 C243.12,482.74 231.82,477.46 224.50,473.22 C217.51,469.18 193.84,455.76 165.00,439.50 C151.52,431.90 132.62,421.20 123.00,415.71 C113.38,410.22 103.93,404.85 102.00,403.77 C57.18,378.63 55.13,377.10 48.75,364.22 L 44.50 355.64 L 44.80 259.07 C44.96,205.96 45.33,160.70 45.62,158.50 C46.98,148.01 53.94,135.19 61.28,129.61 C64.27,127.33 104.67,104.00 105.61,104.00 C105.85,104.00 107.80,102.89 109.96,101.53 C112.11,100.17 117.39,97.08 121.69,94.66 C125.98,92.25 137.82,85.56 148.00,79.80 C158.18,74.04 171.90,66.28 178.50,62.56 C185.10,58.83 190.95,55.52 191.50,55.20 C192.05,54.88 191.91,55.34 191.20,56.22 C190.48,57.11 188.01,58.75 185.70,59.89 C176.32,64.49 175.46,67.96 182.19,74.11 C184.69,76.39 184.85,76.88 183.52,77.98 C181.25,79.87 181.63,83.53 184.24,84.69 C186.04,85.50 187.40,85.12 191.29,82.73 C193.93,81.10 196.30,79.96 196.54,80.20 C196.78,80.44 191.47,83.72 184.74,87.48 C178.01,91.24 165.98,98.00 158.00,102.50 C73.20,150.34 75.80,148.67 70.89,158.64 L 68.50 163.50 L 68.22 253.31 L 67.94 343.11 L 70.62 349.10 C75.61,360.20 75.67,360.24 155.50,404.32 C165.40,409.79 176.43,415.94 180.00,418.00 C183.57,420.06 190.77,424.13 196.00,427.04 C201.23,429.95 207.52,433.55 210.00,435.04 C212.48,436.53 217.65,439.45 221.50,441.52 C225.35,443.60 232.07,447.27 236.43,449.68 C246.33,455.15 251.16,456.39 260.29,455.77 C267.76,455.27 270.70,454.26 280.00,448.97 C292.20,442.04 296.00,440.00 296.00,440.41 C296.00,440.64 294.31,441.86 292.25,443.10 C290.19,444.35 287.28,446.37 285.79,447.59 C284.29,448.81 282.62,449.96 282.07,450.15 C281.51,450.34 280.89,451.60 280.69,452.95 C280.29,455.60 278.58,456.74 277.53,455.05 C276.53,453.43 272.21,453.80 271.21,455.60 C270.72,456.47 270.53,458.31 270.79,459.69 C271.22,461.95 271.61,462.13 274.88,461.58 C281.64,460.45 282.44,460.49 282.75,462.03 C283.30,464.72 279.48,467.79 276.08,467.40 C273.09,467.05 272.97,467.19 273.01,470.75 C273.01,471.16 274.70,471.60 276.76,471.73 C278.82,471.85 282.18,472.17 284.24,472.43 C287.28,472.82 289.56,472.08 296.49,468.42 C309.65,461.48 306.54,463.94 291.93,472.04 C272.22,482.96 269.30,483.97 258.00,483.84 C252.77,483.78 247.38,483.52 246.00,483.27 ZM 187.80 405.74 C178.62,400.66 169.88,395.58 168.38,394.45 L 165.66 392.40 L 169.94 383.95 C172.30,379.30 174.56,375.05 174.96,374.50 C175.37,373.95 179.89,365.40 185.02,355.50 C201.76,323.19 201.39,323.82 202.18,325.95 C202.57,327.01 203.86,328.39 205.06,329.03 C206.97,330.05 207.73,329.72 211.36,326.30 C213.64,324.16 217.30,321.60 219.50,320.62 C223.52,318.83 233.07,313.11 234.00,311.94 C235.45,310.11 248.27,304.08 252.16,303.40 C261.10,301.81 266.72,298.09 271.76,290.42 C273.38,287.96 266.88,300.62 236.54,359.00 C229.82,371.92 220.60,389.81 216.05,398.75 C210.42,409.82 207.25,415.00 206.14,414.99 C205.24,414.98 196.99,410.82 187.80,405.74 ZM 161.02 352.87 C148.34,349.47 136.59,343.11 126.25,334.04 C121.16,329.59 117.00,325.66 117.00,325.32 C117.00,324.73 118.29,325.73 123.45,330.30 C124.81,331.50 126.30,331.89 127.95,331.48 C130.59,330.81 138.66,324.03 138.26,322.81 C138.13,322.40 139.93,320.95 142.26,319.58 C147.44,316.54 159.00,304.87 159.00,302.69 C159.00,301.81 158.39,300.74 157.65,300.30 C156.91,299.86 154.80,297.70 152.97,295.50 C150.11,292.08 150.41,292.24 155.06,296.65 C163.44,304.59 173.99,309.15 186.89,310.41 C189.85,310.70 192.54,311.21 192.88,311.54 C193.43,312.09 174.02,350.83 171.74,353.75 C170.49,355.33 170.06,355.30 161.02,352.87 Z" fill="rgb(97,85,244)"/>
  </g>
</svg>